<?xml version="1.0" encoding="utf-8"?>
<!-- Generator: Adobe Illustrator 24.0.1, SVG Export Plug-In . SVG Version: 6.00 Build 0)  -->
<svg version="1.1" id="Layer_1" xmlns="http://www.w3.org/2000/svg" xmlns:xlink="http://www.w3.org/1999/xlink" x="0px" y="0px"
	 viewBox="0 0 100 100" style="enable-background:new 0 0 100 100;" xml:space="preserve">
<style type="text/css">
	.st0{fill:none;stroke:#000000;stroke-width:4;stroke-miterlimit:10;}
	.st1{fill:none;stroke:#000000;stroke-width:4;stroke-linecap:round;stroke-miterlimit:10;}
	.st2{fill:#FFFFFF;}
</style>
<g>
	<path d="M77.2,48.2v-0.2c4.5-1.8,6.5-5.9,6.5-12.4v-2.5c0-9.8-4.5-14.6-14.8-14.6h-5.8L63,18.1c-5.9-15-23.6-16-28-16l0,0h-1.9
		h-0.4h-0.8v9.1h0.8h0.4h1l0.2,0c2.2-0.1,19.5-0.2,19.5,18.1v38.7c0,7.7,6.3,14,14,14h1.8c10,0,15.2-5.3,15.2-15.1v-5.4
		C84.7,54.8,82.6,50.1,77.2,48.2z M63.8,27.5h4.8c3.5,0,5.1,2,5.1,6.5v3.5c0,5.1-2.3,6.7-6,6.7h-3.9V27.5z M74.7,66.7
		c0,4.7-1.8,6.3-5.2,6.3h-1.1c-2.6,0-4.7-2.1-4.7-4.7V53.4h4.4c4.6,0,6.5,1.8,6.5,7.7V66.7z"/>
	<path d="M65.9,88.8l-0.2,0c-2.2,0.1-19.5,0.2-19.5-18.1l0,0V31.9c0-7.7-6.3-14-14-14h-1.1c-10.4,0-14.8,4.8-14.8,14.6v2.5
		c0,6.5,2,10.6,6.5,12.4v0.2c-5.4,1.8-7.5,6.5-7.5,13.3v5.4c0,9.8,5.2,15.1,15.2,15.1h6.4l0,0l0.1,0.4c5.9,15,23.6,15.9,28,15.9h3.1
		v-9.1H65.9z M36.2,72.5h-5.7c-3.4,0-5.2-1.5-5.2-6.3v-5.5c0-5.9,1.9-7.7,6.5-7.7h4.4V72.5z M36.2,43.9h-3.9c-3.7,0-6-1.6-6-6.7
		v-3.5c0-4.6,1.5-6.5,5.1-6.5h0.2c2.6,0,4.7,2.1,4.7,4.7V43.9z"/>
</g>
</svg>
