<?xml version="1.0" encoding="utf-8"?>
<!-- Generator: Adobe Illustrator 24.0.1, SVG Export Plug-In . SVG Version: 6.00 Build 0)  -->
<svg version="1.1" id="Layer_1" xmlns="http://www.w3.org/2000/svg" xmlns:xlink="http://www.w3.org/1999/xlink" x="0px" y="0px"
	 viewBox="0 0 339.4 100" style="enable-background:new 0 0 339.4 100;" xml:space="preserve">
<style type="text/css">
	.st0{fill:none;stroke:#000000;stroke-width:4;stroke-miterlimit:10;}
	.st1{fill:none;stroke:#000000;stroke-width:4;stroke-linecap:round;stroke-miterlimit:10;}
	.st2{fill:#FFFFFF;}
</style>
<g>
	<path class="st2" d="M94.1,50c0-23.8-18.8-43.2-42.4-44.2c-0.6,0-1.2,0-1.9,0H14.6c-1.2,0-2.2,0.6-2.8,1.6c-0.6,1-0.6,2.2,0,3.3
		c1.6,2.8,3.8,8.3,1.7,14.3C8.5,32,5.6,40.7,5.6,50c0,24,19.3,43.6,43.2,44.2c0.1,0,0.1,0,0.2,0l0,0c0.1,0,0.1,0,0.2,0c0,0,0,0,0,0
		c0.1,0,0.2,0,0.3,0c0.1,0,0.3,0,0.4,0h27.4c1.9,0,3.5-1.6,3.5-3.5v-9.1C89,73.6,94.1,62.4,94.1,50z M79.1,61.8
		c-1-0.4-2.2,0.1-2.6,1.1c-5.2,12.5-12.1,15.2-18.7,16.9l-1.6,0.4l0.1,1.6c0.1,2.8-0.5,4.9-1.9,6.3c-1.7,1.8-4.3,2.2-5.1,2.2
		c-0.1,0-0.2,0-0.3,0c-1.5-0.2-9.7-1.6-13.8-8.1c6.4-6.4,8.7-7.1,14.9-7.1v0c0.6,0,1.2,0,1.8-0.1l0,0c0,0,0,0,0,0
		C64.9,73.9,75,63.1,75,50c0-2.7-0.4-5.3-1.2-7.7c2.3,2.2,4.6,4.6,6.9,7.4c11.5,14.1-0.9,27.4-4.6,31c-5,4.2-10.9,7.3-17.5,8.7
		c1.1-1.7,1.7-3.8,1.8-6.2C67.6,81.1,75,77,80.2,64.4C80.6,63.4,80.1,62.2,79.1,61.8z M28.7,50c0-2.8,0.6-5.5,1.5-7.9h8.4
		c1.9,0,3.5-1.6,3.5-3.5v-8.3c2.1-0.8,4.3-1.3,6.7-1.4c0.5,0,0.9,0,1.1,0c4.5,0,8.6,1.4,12,3.8c0.2,0.2,0.5,0.3,0.7,0.5
		C67.7,37,71,43.1,71,50c0,1-0.1,2.1-0.2,3.1c-0.3-0.3-0.6-0.6-0.9-0.9c-2.3-2.3-4.6-4.8-7.1-3.7c-2,0.8-2.8,3.3-2.8,8.5
		c0.2,12.2-7.6,14-8.5,14.1c-0.6,0-1.1,0.1-1.7,0.1C38.2,71.1,28.7,61.7,28.7,50z M32.4,38.1c1.5-2.3,3.5-4.2,5.8-5.7v5.7H32.4z
		 M64.4,52.4c0.8,0.5,2,1.8,2.7,2.5c0.9,1,1.8,1.8,2.6,2.5c-1.5,4.1-4.3,7.6-7.8,10c1.3-2.6,2.2-6,2.1-10.5
		C64,54.3,64.2,53,64.4,52.4z M90.2,50c0,3.1-0.4,6-1,8.9c-0.6-4.1-2.4-8-5.5-11.7C76.9,38.8,69.6,33.4,65,30
		c-0.2-0.1-0.4-0.3-0.5-0.4c-0.1,0-0.1-0.1-0.2-0.1l-0.4-0.3l0,0c-1.7-1.2-3.6-2.1-5.6-2.8c3.1-1.6,6.3-4.2,8.5-8.5l0.6-1.2l-0.8-1
		c-1.2-1.4-2.2-2.6-3.1-3.6C79,17.7,90.2,32.6,90.2,50z M53.1,9.8c3.5,0.4,5.1,1.9,9.6,7.4c-4.2,7-12.4,7.7-12.9,7.7
		c-0.4,0-0.8,0-1.2,0c-1.8-0.2-5.2-1.4-6.4-8l-0.4-2.2l-2.1,0.6c-6.1,1.8-16,9.4-17.6,17.1c-0.2,1.1,0.5,2.1,1.5,2.3
		c0.1,0,0.3,0,0.4,0c0.9,0,1.7-0.6,1.9-1.6c1.1-5.2,7.8-11,12.9-13.4c0.8,2.8,2.1,4.8,3.5,6.1C32.1,29.3,24.7,38.8,24.7,50
		c0,1.6,0.2,3.2,0.4,4.7c-1.7-2.1-3.5-4.5-5.4-7.1c-11.2-16,5-29,7.7-31.1c6.4-4.3,14.1-6.8,22.3-6.8C50.9,9.7,52,9.7,53.1,9.8z
		 M15.7,9.7h15.9c-2.1,0.9-4.1,2-6,3.3l0,0c0,0-0.2,0.1-0.3,0.2c-2.5,1.7-4.9,3.7-7,5.9C18.1,15.2,16.8,12,15.7,9.7z M9.5,50
		c0-4.8,0.9-9.5,2.4-13.8c0,4.6,1.5,9.2,4.6,13.6c5.5,7.9,11.3,14.4,17,19.3l0,0c1.9,1.7,4.1,3,6.5,4c-2.6,1.4-5.2,3.7-8.7,7.4l-1,1
		l0.6,1.3c0.8,1.7,1.9,3.1,3,4.3C19.7,80.9,9.5,66.6,9.5,50z M68.1,90.3c3.1-1.4,6-3.2,8.7-5.2v5.2H68.1z"/>
	<path class="st2" d="M50.6,16.2c0.9,0,1.6-0.7,1.6-1.6c0-0.9-0.7-1.6-1.6-1.6s-1.6,0.7-1.6,1.6C48.9,15.5,49.7,16.2,50.6,16.2z"/>
	<path class="st2" d="M47.3,78.3c-0.9,0-1.6,0.7-1.6,1.6c0,0.9,0.7,1.6,1.6,1.6c0.9,0,1.6-0.7,1.6-1.6C48.9,79,48.2,78.3,47.3,78.3z
		"/>
	<path class="st2" d="M38.4,58.2c-0.9,0-1.7,0.8-1.7,1.7c0,0.9,0.8,1.7,1.7,1.7c0.9,0,1.7-0.8,1.7-1.7C40.1,59,39.3,58.2,38.4,58.2z
		"/>
	<path class="st2" d="M52.5,64.4c0-0.9-0.8-1.7-1.7-1.7c-0.9,0-1.7,0.8-1.7,1.7c0,0.9,0.8,1.7,1.7,1.7
		C51.7,66.1,52.5,65.4,52.5,64.4z"/>
	<path class="st2" d="M35,46.8c-0.9,0-1.7,0.8-1.7,1.7c0,0.9,0.8,1.7,1.7,1.7c0.9,0,1.7-0.8,1.7-1.7C36.7,47.6,35.9,46.8,35,46.8z"
		/>
	<path class="st2" d="M58.1,42.3c0.4,0.5,1,0.8,1.6,0.8c0.4,0,0.9-0.1,1.2-0.4c0.9-0.7,1-1.9,0.3-2.8c-2.7-3.4-6.7-5.4-11-5.4
		c-1.1,0-2,0.9-2,2s0.9,2,2,2C53.3,38.5,56.2,39.9,58.1,42.3z"/>
</g>
<g>
	<path class="st2" d="M124.7,48.4v-0.2c3.8-1.6,5.5-5.1,5.5-10.7v-2.2c0-8.4-3.8-12.6-12.7-12.6h-13v54.7H118c8.6,0,13-4.5,13-13
		v-4.7C131.1,54.1,129.3,50,124.7,48.4z M113.1,30.6h4.1c3.1,0,4.4,1.7,4.4,5.6v3c0,4.4-2,5.8-5.2,5.8h-3.4V30.6z M122.5,64.3
		c0,4.1-1.6,5.4-4.4,5.4h-4.9V52.9h3.8c3.9,0,5.5,1.6,5.5,6.6V64.3z"/>
	<path class="st2" d="M179.9,22.1c-8.4,0-13,5-13,13.7v28.7c0,8.8,4.6,13.8,13,13.8c8.4,0,13-5,13-13.8V35.8
		C193,27,188.4,22.1,179.9,22.1z M184.4,65.1c0,3.9-1.7,5.4-4.5,5.4c-2.7,0-4.5-1.5-4.5-5.4V35.2c0-3.9,1.7-5.4,4.5-5.4
		c2.7,0,4.5,1.5,4.5,5.4V65.1z"/>
	<path class="st2" d="M248.6,22.8h-11.6L228,77.5h8l1.6-10.7h9.8v-0.2l1.6,10.8h8.6L248.6,22.8z M238.6,59.4l3.8-27h0.1l3.8,27
		H238.6z"/>
	<path class="st2" d="M261.6,22.8v54.7h8.6V22.8H261.6z"/>
	<path class="st2" d="M274.3,22.8v7.8h9v46.8h8.6V30.6h9v-7.8H274.3z"/>
	<path class="st2" d="M319.7,46.9c-5.6-4.9-7.4-7.8-7.4-11.8c0-3.8,1.6-5.2,4.3-5.2s4.3,1.5,4.3,5.4v2.8h8.1v-2.3
		c0-8.8-4.1-13.7-12.5-13.7c-8.3,0-12.8,5-12.8,13.6c0,6.3,2.3,10.7,9.5,17c5.6,4.9,7.3,7.8,7.3,12.3c0,4.1-1.7,5.5-4.5,5.5
		c-2.7,0-4.4-1.4-4.4-5.3v-3.8h-8.1v3.1c0,8.8,4.2,13.8,12.6,13.8s13-5,13-13.9C329.1,57.6,326.9,53.2,319.7,46.9z"/>
	<path class="st2" d="M179.8,83.3h-0.9h-0.2l-0.2,0c-1.9,0.1-16.8,0.2-16.8-15.6v-6.5c0-6.2-1.4-10.2-5.7-11.5v-0.2
		c3.8-1.6,5.6-5.1,5.6-10.8v-3.4c0-8.4-3.8-12.6-12.7-12.6h-12.7v54.7h8.6V54.1h3c3.5,0,5,1.3,5.3,5.2c0,0.5,0.1,1,0.1,1.6v6.6
		c0,0,0,0.5-0.1,1.4v3.4c0.1,1.7,0.2,3.4,0.6,4.6l0.2,0.7c5.4,13.8,22.6,13.8,24.6,13.7l0.3,0l0,0l0.4,0l0.6,0v0l0.1,0v-7.9H179.8z
		 M152.9,40.5c0,4.4-2,5.8-5.2,5.8h-3.1V30.6h3.9c3,0,4.4,1.7,4.4,5.6V40.5z"/>
	<path class="st2" d="M218.9,48.4v-0.2c3.8-1.6,5.5-5.1,5.5-10.7v-2.2c0-8.4-3.8-12.6-12.7-12.6h-5l-0.1-0.3
		c-5.1-12.9-20.3-13.7-24-13.7l0,0H181h-0.3h-0.7v7.8h0.7h0.3h0.8l0.2,0c1.9-0.1,16.8-0.1,16.8,15.6v45.3h13.5c8.6,0,13-4.5,13-13
		v-4.7C225.3,54.1,223.5,50,218.9,48.4z M207.3,30.6h4.1c3,0,4.4,1.7,4.4,5.6v3c0,4.4-1.9,5.8-5.1,5.8h-3.4V30.6z M216.7,64.3
		c0,4.1-1.6,5.4-4.5,5.4h-4.9V52.9h3.8c3.9,0,5.6,1.6,5.6,6.6V64.3z"/>
</g>
</svg>
