<?xml version="1.0" encoding="utf-8"?>
<!-- Generator: Adobe Illustrator 24.0.1, SVG Export Plug-In . SVG Version: 6.00 Build 0)  -->
<svg version="1.1" id="Layer_1" xmlns="http://www.w3.org/2000/svg" xmlns:xlink="http://www.w3.org/1999/xlink" x="0px" y="0px"
	 viewBox="0 0 100 100" style="enable-background:new 0 0 100 100;" xml:space="preserve">
<style type="text/css">
	.st0{fill:none;stroke:#000000;stroke-width:4;stroke-miterlimit:10;}
	.st1{fill:none;stroke:#000000;stroke-width:4;stroke-linecap:round;stroke-miterlimit:10;}
	.st2{fill:#FFFFFF;}
</style>
<g>
	<path d="M91.2,50c0-21.9-17.1-39.8-38.7-41.1c0,0-0.1,0-0.1,0c-0.2,0-0.4,0-0.7,0c-0.6,0-1.2,0-1.8,0H16.6c-0.9,0-1.7,0.5-2.1,1.2
		c-0.4,0.8-0.5,1.7,0,2.5c1.5,2.7,3.8,8.2,1.6,14.1C11.5,33.2,8.8,41.3,8.8,50c0,22.4,17.9,40.7,40.2,41.2c0.1,0,0.1,0,0.2,0l0,0
		c0,0,0.1,0,0.1,0c0,0,0,0,0,0c0,0,0.2,0,0.3,0c0.1,0,0.3,0,0.4,0h25.9c1.5,0,2.7-1.2,2.7-2.7v-8.9C86.4,72.1,91.2,61.6,91.2,50z
		 M56.6,88.1c1.7-1.8,2.6-4.2,2.6-7.3c6.9-1.9,13.9-5.6,18.9-17.5c0.3-0.6,0-1.4-0.7-1.6c-0.6-0.3-1.4,0-1.6,0.7
		c-5,12-12,14.7-18.1,16.3l-1,0.3l0,1c0.1,2.8-0.5,5-1.9,6.4c-1.8,1.9-4.4,2.2-5.3,2.3c-0.1,0-0.2,0-0.4,0
		c-1.4-0.2-9.8-1.6-13.7-8.3c6.4-6.5,8.8-7.2,14.9-7.2v0c0.5,0,1.1,0,1.6-0.1l0,0c0,0,0,0,0,0c11.8-1,21.1-10.9,21.1-23
		c0-3.4-0.8-6.7-2.1-9.6c2.8,2.5,5.7,5.4,8.6,8.9C90.8,63,78.9,76,75.2,79.4C70,83.8,63.6,86.9,56.6,88.1z M29.4,50
		c0-2.9,0.6-5.6,1.7-8.1h8.4c1.5,0,2.7-1.2,2.7-2.7V31c2.1-0.9,4.5-1.4,6.9-1.6c0.5,0,0.9,0,1.1,0c4.4,0,8.5,1.4,11.8,3.8
		c0.2,0.1,0.4,0.3,0.6,0.4c5,3.8,8.2,9.7,8.2,16.4c0,1.4-0.1,2.8-0.4,4.2c-0.5-0.5-1.2-1.1-1.7-1.7c-2-2.1-4.1-4.2-6-3.4
		c-1.6,0.7-2.3,2.9-2.2,7.4c0.2,12.2-7.7,13.8-8.6,14c-0.6,0-1.1,0.1-1.7,0.1C38.6,70.6,29.4,61.4,29.4,50z M32.3,39.4
		c1.8-3,4.3-5.4,7.3-7.2v7c0,0.1-0.1,0.2-0.2,0.2H32.3z M63.4,51.4c0.7,0.1,2.4,1.9,3.3,2.8c1,1.1,1.9,2,2.8,2.5
		c-1.7,5-5.4,9.2-10,11.6c1.9-2.5,3.4-6.2,3.3-11.8C62.7,52.5,63.3,51.6,63.4,51.4z M88.7,50c0,4.3-0.7,8.4-2,12.3
		c0.2-4.4-1-9.4-5.2-14.5c-6.4-7.9-13.2-13-17.6-16.2c-0.2-0.1-0.3-0.2-0.5-0.3c-0.1,0-0.1-0.1-0.2-0.1l-0.3-0.2l0,0
		c-2-1.3-4.2-2.4-6.6-3.1c3.2-1.4,6.9-3.9,9.2-8.4l0.4-0.7L65.3,18c-1.8-2.2-3.2-3.9-4.5-5.2C76.9,17.5,88.7,32.4,88.7,50z
		 M53.1,11.4c3.6,0.4,5.1,2,9.7,7.5c-4.1,7.2-12.7,7.9-12.9,8c-0.4,0-0.8,0-1.2,0c-1.8-0.2-5.4-1.4-6.6-8.1l-0.2-1.4l-1.3,0.4
		c-5.5,1.7-14.8,8.8-16.2,15.7c-0.1,0.7,0.3,1.3,1,1.5c0.1,0,0.2,0,0.3,0c0.6,0,1.1-0.4,1.2-1c1.1-5.4,8.2-11.3,13.2-13.4
		c0.9,3.6,2.5,5.7,4.1,6.9C34.2,30.3,26.9,39.3,26.9,50c0,2.4,0.4,4.7,1.1,6.9c-2.1-2.5-4.4-5.4-6.8-8.9
		c-10.9-15.6,4.8-28.3,7.4-30.2c6.2-4.1,13.5-6.5,21.5-6.5C51.1,11.3,52.1,11.3,53.1,11.4z M16.6,11.3h19.2c-3,1.1-5.8,2.5-8.4,4.2
		l0,0c0,0-0.1,0.1-0.3,0.2c-2.8,1.9-5.4,4.1-7.6,6.6C19.7,17.6,17.9,13.6,16.6,11.3z M11.3,50c0-6.1,1.4-11.9,4-17
		c-1,4.8-0.4,10.4,3.8,16.5c5.1,7.4,10.7,13.6,16,18.2l0,0c2.2,1.8,4.6,3.3,7.4,4.2c-2.9,1.2-5.5,3.4-9.4,7.4l-0.6,0.6l0.4,0.8
		c1.3,2.6,3.2,4.6,5.1,6.1C22.5,81.7,11.3,67.1,11.3,50z M75.9,88.7H64.1c4.2-1.5,8.1-3.8,11.6-6.5l0,0c0,0,0.2-0.1,0.4-0.3v6.6
		C76.1,88.6,76,88.7,75.9,88.7z"/>
	<path d="M50.7,18.1c0.9,0,1.6-0.7,1.6-1.6c0-0.9-0.7-1.6-1.6-1.6c-0.9,0-1.6,0.7-1.6,1.6C49.1,17.4,49.8,18.1,50.7,18.1z"/>
	<path d="M47.6,76.7c-0.9,0-1.6,0.7-1.6,1.6s0.7,1.6,1.6,1.6c0.9,0,1.6-0.7,1.6-1.6S48.4,76.7,47.6,76.7z"/>
	<path d="M39.2,57.8c-0.9,0-1.6,0.7-1.6,1.6s0.7,1.6,1.6,1.6c0.9,0,1.6-0.7,1.6-1.6S40,57.8,39.2,57.8z"/>
	<path d="M52.5,63.6c0-0.9-0.7-1.6-1.6-1.6s-1.6,0.7-1.6,1.6c0,0.9,0.7,1.6,1.6,1.6S52.5,64.5,52.5,63.6z"/>
	<path d="M35.9,47c-0.9,0-1.6,0.7-1.6,1.6s0.7,1.6,1.6,1.6s1.6-0.7,1.6-1.6S36.8,47,35.9,47z"/>
	<path d="M50.3,38.5c3.1,0,6,1.4,7.9,3.9c0.2,0.3,0.6,0.5,1,0.5c0.3,0,0.5-0.1,0.8-0.3c0.5-0.4,0.6-1.2,0.2-1.8
		c-2.4-3.1-6-4.8-9.9-4.8c-0.7,0-1.2,0.6-1.2,1.2C49.1,37.9,49.6,38.5,50.3,38.5z"/>
</g>
</svg>
