<svg width="631" height="232" viewBox="0 0 631 232" fill="none" xmlns="http://www.w3.org/2000/svg">
<path d="M56.6629 111.486V110.924C67.3223 106.431 72.0909 96.6024 72.0909 80.8764V74.6984C72.0909 51.1095 61.4316 39.3151 36.4662 39.3151H0V192.924H37.8688C61.9926 192.924 74.335 180.287 74.335 156.417V143.219C74.6155 127.493 69.5663 115.979 56.6629 111.486ZM24.1238 61.4999H35.6247C44.3205 61.4999 47.9671 66.2738 47.9671 77.2258V85.6504C47.9671 98.0065 42.3569 101.938 33.3806 101.938H23.8433V61.4999H24.1238ZM50.4917 156.136C50.4917 167.65 46.0035 171.301 38.1493 171.301H24.4043V124.123H35.0637C46.0035 124.123 50.4917 128.616 50.4917 142.657V156.136Z" fill="#65A850"/>
<path d="M211.504 37.6299C187.941 37.6299 175.038 51.6709 175.038 76.1023V156.698C175.038 181.41 187.941 195.451 211.504 195.451C235.067 195.451 247.97 181.41 247.97 156.698V76.1023C248.251 51.3901 235.347 37.6299 211.504 37.6299ZM224.127 158.383C224.127 169.335 219.358 173.547 211.504 173.547C203.93 173.547 198.881 169.335 198.881 158.383V74.4174C198.881 63.4654 203.65 59.2531 211.504 59.2531C219.078 59.2531 224.127 63.4654 224.127 74.4174V158.383Z" fill="#65A850"/>
<path d="M404.214 39.5958H371.675L346.429 193.204H368.87L373.358 163.157H400.848V162.595L405.336 192.924H429.46L404.214 39.5958ZM376.163 142.376L386.823 66.5546H387.103L397.762 142.376H376.163Z" fill="#65A850"/>
<path d="M440.68 39.5958V193.204H464.804V39.5958H440.68Z" fill="#65A850"/>
<path d="M476.305 39.5958V61.4998H501.551V192.924H525.675V61.4998H550.92V39.5958H476.305Z" fill="#65A850"/>
<path d="M603.656 107.273C587.948 93.5132 582.899 85.3694 582.899 74.1366C582.899 63.4654 587.387 59.5339 594.961 59.5339C602.534 59.5339 607.022 63.7462 607.022 74.6982V82.5612H629.744V76.1023C629.744 51.3901 618.243 37.6299 594.68 37.6299C571.398 37.6299 558.775 51.671 558.775 75.8215C558.775 93.5132 565.227 105.869 585.423 123.561C601.132 137.321 605.9 145.465 605.9 158.102C605.9 169.615 601.132 173.547 593.278 173.547C585.704 173.547 580.935 169.615 580.935 158.663V147.992H558.214V156.698C558.214 181.41 569.995 195.451 593.558 195.451C617.121 195.451 630.024 181.41 630.024 156.417C630.024 137.321 623.853 124.965 603.656 107.273Z" fill="#65A850"/>
<path d="M211.224 209.492H208.699H208.138H207.577C202.247 209.773 160.451 210.054 160.451 165.684V147.431C160.451 130.02 156.524 118.787 144.462 115.137V114.575C155.122 110.082 160.171 100.253 160.171 84.2463V74.6984C160.171 51.1095 149.511 39.3151 124.546 39.3151H88.9214V192.924H113.045V127.493H121.46C131.278 127.493 135.486 131.143 136.327 142.095C136.327 143.499 136.608 144.903 136.608 146.588V165.123C136.608 165.123 136.608 166.527 136.327 169.054V178.602C136.608 183.376 136.888 188.15 138.011 191.52L138.572 193.485C153.719 232.239 201.967 232.239 207.577 231.958H208.418H209.54H211.224H211.504V209.773H211.224V209.492ZM135.766 89.3011C135.766 101.657 130.156 105.589 121.18 105.589H112.484V61.4999H123.424C131.839 61.4999 135.766 66.2738 135.766 77.2258V89.3011Z" fill="#65A850"/>
<path d="M320.903 111.486V110.924C331.562 106.431 336.331 96.6023 336.331 80.8763V74.6983C336.331 51.1094 325.671 39.3149 300.706 39.3149H286.681L286.4 38.4725C272.094 2.24668 229.457 0.00012207 219.078 0.00012207H214.59H213.748H211.785V21.9041H213.748H214.59H216.834H217.395C222.725 21.6233 264.52 21.6233 264.52 65.712V192.924H302.389C326.513 192.924 338.855 180.287 338.855 156.417V143.218C338.855 127.492 333.806 115.979 320.903 111.486ZM288.364 61.4997H299.865C308.28 61.4997 312.207 66.2737 312.207 77.2257V85.6503C312.207 98.0064 306.877 101.938 297.901 101.938H288.364V61.4997ZM314.732 156.136C314.732 167.65 310.243 171.3 302.109 171.3H288.364V124.123H299.023C309.963 124.123 314.732 128.616 314.732 142.657V156.136Z" fill="#65A850"/>
</svg>
