<svg xmlns="http://www.w3.org/2000/svg" width="225.747" height="51.367" viewBox="0 0 225.747 51.367">
  <g id="Group_1" data-name="Group 1" transform="translate(-140.157 -29.986)">
    <path id="Path_2276" data-name="Path 2276" d="M5.174-18.733H1.781V0H5.174V-6.9A2.582,2.582,0,0,1,7.839-9.75c1.547,0,2.457,1,2.457,2.821V0h3.393V-8.021a4.692,4.692,0,0,0-4.9-4.914,4.226,4.226,0,0,0-3.614,1.69ZM29.549-12.6H26.234v1.391a4.612,4.612,0,0,0-3.77-1.729c-3.471,0-6.1,2.847-6.1,6.63s2.626,6.63,6.1,6.63a4.622,4.622,0,0,0,3.77-1.716V0h3.315ZM23.088-9.776a3.237,3.237,0,0,1,3.25,3.471,3.237,3.237,0,0,1-3.25,3.471,3.243,3.243,0,0,1-3.25-3.471A3.243,3.243,0,0,1,23.088-9.776ZM36.5-18.72H33.111V0H36.5Zm8.879,5.785c-3.471,0-6.1,2.847-6.1,6.63s2.626,6.63,6.1,6.63a4.622,4.622,0,0,0,3.77-1.716V0h3.315V-18.72h-3.38v7.436A4.578,4.578,0,0,0,45.383-12.935Zm.624,3.159a3.237,3.237,0,0,1,3.25,3.471,3.237,3.237,0,0,1-3.25,3.471,3.243,3.243,0,0,1-3.25-3.471A3.243,3.243,0,0,1,46.007-9.776Zm16.042-3.159a6.537,6.537,0,0,0-6.8,6.63,6.537,6.537,0,0,0,6.8,6.63,6.552,6.552,0,0,0,6.825-6.63A6.552,6.552,0,0,0,62.049-12.935Zm0,3.159A3.3,3.3,0,0,1,65.4-6.305a3.3,3.3,0,0,1-3.354,3.471,3.293,3.293,0,0,1-3.341-3.471A3.293,3.293,0,0,1,62.049-9.776Zm16.432-3.159a3.976,3.976,0,0,0-3.549,1.716V-12.6H71.643V0h3.393V-6.864A2.519,2.519,0,0,1,77.688-9.7a5.507,5.507,0,0,1,2.054.4l.507-3.367A5.152,5.152,0,0,0,78.481-12.935Zm16.055.338H91.221v1.391a4.612,4.612,0,0,0-3.77-1.729c-3.471,0-6.1,2.847-6.1,6.63s2.626,6.63,6.1,6.63a4.622,4.622,0,0,0,3.77-1.716V0h3.315ZM88.075-9.776a3.237,3.237,0,0,1,3.25,3.471,3.237,3.237,0,0,1-3.25,3.471,3.243,3.243,0,0,1-3.25-3.471A3.243,3.243,0,0,1,88.075-9.776Zm15.34-3.159c-3.471,0-6.1,2.847-6.1,6.63s2.626,6.63,6.1,6.63a4.622,4.622,0,0,0,3.77-1.716V0H110.5V-18.72h-3.38v7.436A4.578,4.578,0,0,0,103.415-12.935Zm.624,3.159a3.237,3.237,0,0,1,3.25,3.471,3.237,3.237,0,0,1-3.25,3.471,3.243,3.243,0,0,1-3.25-3.471A3.243,3.243,0,0,1,104.039-9.776Zm16.042-3.159a6.537,6.537,0,0,0-6.8,6.63,6.537,6.537,0,0,0,6.8,6.63,6.552,6.552,0,0,0,6.825-6.63A6.552,6.552,0,0,0,120.081-12.935Zm0,3.159a3.3,3.3,0,0,1,3.354,3.471,3.3,3.3,0,0,1-3.354,3.471,3.293,3.293,0,0,1-3.341-3.471A3.293,3.293,0,0,1,120.081-9.776Zm11.271,5.057a2.576,2.576,0,0,0-2.535,2.509A2.59,2.59,0,0,0,131.352.325a2.576,2.576,0,0,0,2.509-2.535A2.562,2.562,0,0,0,131.352-4.719Zm8.762-14.014h-3.393V0h3.393V-6.9a2.582,2.582,0,0,1,2.665-2.847c1.547,0,2.457,1,2.457,2.821V0h3.393V-8.021a4.692,4.692,0,0,0-4.9-4.914,4.226,4.226,0,0,0-3.614,1.69ZM163.9-12.6h-3.38v6.929c0,2.015-1.118,2.834-2.574,2.834s-2.574-.819-2.574-2.834V-12.6h-3.393v7.228c0,3.978,2.808,5.694,5.967,5.694S163.9-1.391,163.9-5.369Z" transform="translate(202 56.354)" fill="#2c5fa1"/>
    <path id="Path_2277" data-name="Path 2277" d="M4.53-7H2.83L.105,0H1.56l.61-1.63H5.155L5.765,0h1.49ZM3.665-5.62l1.01,2.705H2.65ZM11.69-7.205h-1.3V0h1.3V-2.655a.993.993,0,0,1,1.025-1.1c.6,0,.945.385.945,1.085V0h1.305V-3.085a1.8,1.8,0,0,0-1.885-1.89,1.625,1.625,0,0,0-1.39.65Zm6.92,2.23a2.514,2.514,0,0,0-2.615,2.55A2.514,2.514,0,0,0,18.61.125a2.52,2.52,0,0,0,2.625-2.55A2.52,2.52,0,0,0,18.61-4.975Zm0,1.215A1.271,1.271,0,0,1,19.9-2.425,1.271,1.271,0,0,1,18.61-1.09a1.267,1.267,0,0,1-1.285-1.335A1.267,1.267,0,0,1,18.61-3.76Zm6.32-1.215a1.529,1.529,0,0,0-1.365.66v-.53H22.3V0H23.6V-2.64a.969.969,0,0,1,1.02-1.09,2.118,2.118,0,0,1,.79.155l.195-1.3A1.982,1.982,0,0,0,24.93-4.975Zm3.335,0A2.318,2.318,0,0,0,26.035-2.5a2.317,2.317,0,0,0,2.23,2.47,1.828,1.828,0,0,0,1.49-.655v.34A1.237,1.237,0,0,1,28.375.94a2.864,2.864,0,0,1-1.6-.5L26.31,1.51a3.828,3.828,0,0,0,2.12.585A2.371,2.371,0,0,0,31.045-.4V-4.845h-1.28v.54A1.836,1.836,0,0,0,28.265-4.975Zm.33,1.2A1.2,1.2,0,0,1,29.81-2.5a1.2,1.2,0,0,1-1.215,1.27,1.2,1.2,0,0,1-1.22-1.27A1.2,1.2,0,0,1,28.595-3.775Zm8.59-1.07H35.91v.535a1.774,1.774,0,0,0-1.45-.665,2.4,2.4,0,0,0-2.345,2.55A2.4,2.4,0,0,0,34.46.125a1.778,1.778,0,0,0,1.45-.66V0h1.275ZM34.7-3.76a1.245,1.245,0,0,1,1.25,1.335A1.245,1.245,0,0,1,34.7-1.09a1.247,1.247,0,0,1-1.25-1.335A1.247,1.247,0,0,1,34.7-3.76Zm.49-1.78,1.32-1.575H34.95L33.945-5.54Zm7.28,1.03a4.34,4.34,0,0,0-2.025-.46c-1.275,0-2.045.59-2.045,1.585,0,.825.555,1.315,1.675,1.47l.395.055c.56.08.805.21.805.445,0,.285-.29.455-.9.455a2.836,2.836,0,0,1-1.65-.475l-.515.99a3.862,3.862,0,0,0,2.155.57c1.4,0,2.225-.645,2.225-1.645,0-.82-.585-1.29-1.635-1.45l-.43-.065c-.44-.065-.79-.135-.79-.415,0-.265.25-.44.745-.44A3.9,3.9,0,0,1,42.03-3.5ZM47.6-4.845H43.5v1.16h2.36L43.42-.94V0h4.24V-1.165H45.215L47.6-3.89Zm3.435-.13a2.514,2.514,0,0,0-2.615,2.55A2.514,2.514,0,0,0,51.04.125a2.52,2.52,0,0,0,2.625-2.55A2.52,2.52,0,0,0,51.04-4.975Zm0,1.215a1.271,1.271,0,0,1,1.29,1.335A1.271,1.271,0,0,1,51.04-1.09a1.267,1.267,0,0,1-1.285-1.335A1.267,1.267,0,0,1,51.04-3.76Zm5-3.44H54.73V0h1.305V-1.96h.44L57.87,0h1.6L57.55-2.565l1.91-2.28h-1.6L56.495-3.12h-.46ZM65.32-4.975a1.75,1.75,0,0,0-1.42.635V-7.2H62.6V0h1.275V-.535a1.771,1.771,0,0,0,1.45.66,2.4,2.4,0,0,0,2.345-2.55A2.4,2.4,0,0,0,65.32-4.975ZM65.08-3.76a1.244,1.244,0,0,1,1.25,1.335A1.244,1.244,0,0,1,65.08-1.09a1.244,1.244,0,0,1-1.245-1.335A1.244,1.244,0,0,1,65.08-3.76Zm4.96-1.085H68.735V0H70.04ZM69.38-7.27a.824.824,0,0,0-.83.84.816.816,0,0,0,.83.83.82.82,0,0,0,.835-.83A.828.828,0,0,0,69.38-7.27Zm4.66,2.3a1.529,1.529,0,0,0-1.365.66v-.53H71.41V0h1.305V-2.64a.969.969,0,0,1,1.02-1.09,2.118,2.118,0,0,1,.79.155l.195-1.3A1.982,1.982,0,0,0,74.04-4.975Zm3.72,0a2.514,2.514,0,0,0-2.615,2.55A2.514,2.514,0,0,0,77.76.125a2.52,2.52,0,0,0,2.625-2.55A2.52,2.52,0,0,0,77.76-4.975Zm0,1.215a1.271,1.271,0,0,1,1.29,1.335A1.271,1.271,0,0,1,77.76-1.09a1.267,1.267,0,0,1-1.285-1.335A1.267,1.267,0,0,1,77.76-3.76Zm5.735-1.215a2.4,2.4,0,0,0-2.345,2.55A2.4,2.4,0,0,0,83.495.125a1.778,1.778,0,0,0,1.45-.66V0H86.22V-7.2h-1.3v2.86A1.761,1.761,0,0,0,83.495-4.975Zm.24,1.215a1.245,1.245,0,0,1,1.25,1.335,1.245,1.245,0,0,1-1.25,1.335,1.247,1.247,0,0,1-1.25-1.335A1.247,1.247,0,0,1,83.735-3.76ZM92.36-4.845H91.085v.535a1.774,1.774,0,0,0-1.45-.665,2.4,2.4,0,0,0-2.345,2.55A2.4,2.4,0,0,0,89.635.125a1.778,1.778,0,0,0,1.45-.66V0H92.36ZM89.875-3.76a1.245,1.245,0,0,1,1.25,1.335,1.245,1.245,0,0,1-1.25,1.335,1.247,1.247,0,0,1-1.25-1.335A1.247,1.247,0,0,1,89.875-3.76Zm5.16-3.44H93.73V0h1.305Zm7.31,2.225a1.823,1.823,0,0,0-1.645.83,1.835,1.835,0,0,0-1.6-.83,1.623,1.623,0,0,0-1.425.7v-.57H96.4V0H97.71V-2.655a.993.993,0,0,1,1.025-1.1c.6,0,.945.385.945,1.085V0h1.305V-2.655a.993.993,0,0,1,1.025-1.1c.59,0,.945.385.945,1.085V0h1.3V-3.085A1.8,1.8,0,0,0,102.345-4.975Zm8.01.13H109.08v.535a1.774,1.774,0,0,0-1.45-.665,2.4,2.4,0,0,0-2.345,2.55A2.4,2.4,0,0,0,107.63.125a1.778,1.778,0,0,0,1.45-.66V0h1.275ZM107.87-3.76a1.245,1.245,0,0,1,1.25,1.335,1.245,1.245,0,0,1-1.25,1.335,1.247,1.247,0,0,1-1.25-1.335A1.247,1.247,0,0,1,107.87-3.76Zm4.56,1.945a.991.991,0,0,0-.975.965,1,1,0,0,0,.975.975.991.991,0,0,0,.965-.975A.986.986,0,0,0,112.43-1.815Z" transform="translate(202 73.354)" fill="#2c5fa1"/>
    <g id="safari-pinned-tab" transform="translate(140.157 29.986)">
      <path id="Path_4" data-name="Path 4" d="M22.8-555.749a25.38,25.38,0,0,0-12.889,5.193,32.225,32.225,0,0,0-4.49,4.49A25.3,25.3,0,0,0,.209-533.02,25.625,25.625,0,0,0,4.228-516.6a27.2,27.2,0,0,0,11.827,10.062,25.758,25.758,0,0,0,17.306.942,25.084,25.084,0,0,0,10.311-6.1,24.94,24.94,0,0,0,5.987-8.972,25.425,25.425,0,0,0,1.709-7.863,15.3,15.3,0,0,0-.046-3.234,24.643,24.643,0,0,0-1.238-6.2,27.1,27.1,0,0,0-13.379-15.3A25.565,25.565,0,0,0,22.8-555.749Zm5.183,4.74a20.733,20.733,0,0,1,14.469,7.863,20.994,20.994,0,0,1,4.056,9.979,28.3,28.3,0,0,1-.1,6.089,21.32,21.32,0,0,1-5.96,11.549A21.32,21.32,0,0,1,28.9-509.57a28.3,28.3,0,0,1-6.089.1,21.5,21.5,0,0,1-11.734-5.479l-.684-.628h1.515c1.719,0,2.282-.111,2.116-.425a1.438,1.438,0,0,0-1.072-.49,11.07,11.07,0,0,1-4.407-2.07,3.337,3.337,0,0,1-1.136-1.183,3.409,3.409,0,0,1-.314-.656c0-.055.259-.148.573-.212,1.746-.342,3.169-1.367,5.405-3.89a10.547,10.547,0,0,1,.952-1.007c.194,0,.693,3.428.841,5.682l.111,1.663.471.49a12.275,12.275,0,0,0,3.335,2.079,44.005,44.005,0,0,0,10.025,3.64,10.629,10.629,0,0,0,4.481.046,5.865,5.865,0,0,0,2.827-1.58,5.206,5.206,0,0,0,1.525-2.864,13.945,13.945,0,0,0-.129-4.4,25.315,25.315,0,0,0-4.629-9.591c-.582-.73-.656-.989-.277-.989a12.965,12.965,0,0,0,3.215-1.247c4.472-2.291,7.752-5.193,8.011-7.1a1.927,1.927,0,0,0-.739-1.783c-1.155-1.155-2.606-1.608-6.227-1.931a65.171,65.171,0,0,0-14.987.841c-8.38,1.257-14.506,3.077-15.19,4.518-.24.49-.055.905.721,1.682a8.56,8.56,0,0,0,5.23,2.1c.73.083,1.349.176,1.367.194.037.037-.961,2.79-1.081,2.994-.055.092-.36.065-1.441-.129a12,12,0,0,0-1.645-.213l-.277.028.379.379a1.929,1.929,0,0,0,1.192.582c.453.111.97.24,1.155.3l.342.083-.416,1.229a16.564,16.564,0,0,1-2.421,4.952c-1.1,1.46-1.922,2.051-2.92,2.079l-.471.009-.471-1.414a21.879,21.879,0,0,1-.97-4.176,29.167,29.167,0,0,1,0-5.082,21.5,21.5,0,0,1,6.061-12.427,21.424,21.424,0,0,1,12.547-6.089A23.526,23.526,0,0,1,27.983-551.009Zm10.727,9.24a9.668,9.668,0,0,1,2.938.536c.554.268.48.869-.213,1.654a56.582,56.582,0,0,1-4.583,3.668,69.434,69.434,0,0,1-8.51,3.7,29.716,29.716,0,0,1-9.637,1.783l-1.829.055.028-1.515.028-1.515.647-.055c.36-.037,1.876-.065,3.382-.074s3.289-.055,3.973-.111a75.246,75.246,0,0,0,8.02-1.33c1.848-.49,4.167-1.4,4.167-1.626a.794.794,0,0,0-.231-.314c-.277-.286-.665-.3-1.164-.037a19.062,19.062,0,0,1-6.643,1.635l-1.09.065-.046-.582a4.144,4.144,0,0,0-1.358-2.522,7.024,7.024,0,0,0-1.155-.97,2.006,2.006,0,0,0-1.34-.268,2.26,2.26,0,0,0-2.144.961A5.693,5.693,0,0,0,20.6-535.7l-.231,1.136h-.979c-.536,0-1.321-.028-1.737-.065l-.767-.055v-.3a1.512,1.512,0,0,0-.49-1.266.881.881,0,0,0-.721-.351c-.333,0-.388.037-.638.434a3.588,3.588,0,0,0-.379.795l-.092.36-.711-.065a7.548,7.548,0,0,1-3.456-1.035q-.956-.582.665-1.3c.61-.277,6.107-1.876,8.454-2.458a41.437,41.437,0,0,1,6.07-1.062A73.373,73.373,0,0,1,38.71-541.77Zm-14.5,3.6a7.338,7.338,0,0,1,.046,1.34,3.125,3.125,0,0,1-.647,2.144c-.185.194-.286.212-1.118.212h-.924l.065-.508a5.4,5.4,0,0,1,.795-2.088,3.059,3.059,0,0,1,1.127-1.321C23.973-538.591,24.112-538.545,24.214-538.166Zm5.414,8.26a7.873,7.873,0,0,1,1.21,1.811,9.552,9.552,0,0,1,1.016,4.527c0,3.058-1.072,5.747-2.606,6.523-.684.351-1.635.443-4.278.453a19.374,19.374,0,0,1-6.006-.693c-1.792-.453-2.966-.915-2.938-1.164.009-.092.1-.905.2-1.792.3-2.633.656-7.53.656-9.129v-.213l3.169.028a31.733,31.733,0,0,0,7.364-.564C29.074-530.4,29.074-530.4,29.628-529.906Z" transform="translate(-0.078 555.897)" fill="#2c5fa1"/>
    </g>
  </g>
</svg>
